# xmcd CD database file generated by Grip 3.3.1
# 
# Track frame offsets:
#       150
#       6324
#       111893
# 
# Disc length: 2451 seconds
# 
# Revision: 1
# Processed by: cddbd v1.5.2PL0 Copyright (c) Steve Scherf et al.
# Submitted via: Grip 3.3.1
# 
DISCID=1d099103
DTITLE=Alexei Maslennikov (Mozart), Evgeny Nesterenko (Salieri), Bolshoi
DTITLE=Theatre Symphony Orchestra - Gennady Rozhdestvensky - Rimsky-Kor
DTITLE=sakov - Mozart and Salieri Op.48
DYEAR=2012
DGENRE=Classical
TTITLE0=Introduction
TTITLE1=Scene 1
TTITLE2=Scene 2
EXTD=
EXTT0=
EXTT1=
EXTT2=
PLAYORDER=
